<svg xmlns="http://www.w3.org/2000/svg" viewBox="0 0 64 64" id="Brazil">
  <g fill="#167ffc" class="color000000 svgShape">
    <path fill="#595bd4" d="M32 22a10 10 0 1 0 9.82 11.86A9.463 9.463 0 0 0 42 32a10 10 0 0 0-10-10Z" class="color1f3d8f svgShape"></path>
    <path fill="#ffb05d" d="M41.82 33.86A9.463 9.463 0 0 0 42 32a10.032 10.032 0 1 0-.18 1.86ZM59 32 32 49 5 32l27-17Z" class="colorffd45d svgShape"></path>
    <path fill="#009b1b" d="M63 5v54a4 4 0 0 1-4 4H5a4 4 0 0 1-4-4V5a4 4 0 0 1 4-4h54a4 4 0 0 1 4 4ZM32 49l27-17-27-17L5 32Z" class="color009b3a svgShape"></path>
    <path fill="#161763" d="M32 42a9.955 9.955 0 0 0 7.127-3H24.866A9.968 9.968 0 0 0 32 42Z" class="color162a63 svgShape"></path>
    <path fill="#fe9526" d="m32 49 27-17-1.226-.772A21.948 21.948 0 0 1 41 39h-1.873a9.974 9.974 0 0 1-14.261 0H23a21.948 21.948 0 0 1-16.774-7.772L5 32Z" class="colorffb844 svgShape"></path>
    <path fill="#008016" d="M59 32 32 49 5 32l1.226-.772A21.908 21.908 0 0 1 1 17v42a4 4 0 0 0 4 4h54a4 4 0 0 0 4-4V17a21.908 21.908 0 0 1-5.226 14.228Z" class="color00802f svgShape"></path>
    <path fill="#e9f5eb" d="M41.966 32.711A26.664 26.664 0 0 0 22.9 27.878a9.87 9.87 0 0 0-.416 1.052 10.194 10.194 0 0 0-.267 1.049c.131-.023.261-.04.414-.06a24.468 24.468 0 0 1 18.592 4.74l.144.112a.979.979 0 0 0 .2.114 10.033 10.033 0 0 0 .256-1.025 9.2 9.2 0 0 0 .143-1.149Z" class="colore9edf5 svgShape"></path>
    <path fill="#006912" d="M59 59H5a4 4 0 0 1-4-4v4a4 4 0 0 0 4 4h54a4 4 0 0 0 4-4v-4a4 4 0 0 1-4 4Z" class="color006927 svgShape"></path>
    <path fill="#53d86a" d="M59 1H5a4 4 0 0 0-4 4v4a4 4 0 0 1 4-4h54a4 4 0 0 1 4 4V5a4 4 0 0 0-4-4Z" class="color00ba46 svgShape"></path>
  </g>
</svg>
